<?xml version="1.0" encoding="utf-8"?>
<!-- Generator: Adobe Illustrator 16.0.0, SVG Export Plug-In . SVG Version: 6.00 Build 0)  -->
<!DOCTYPE svg PUBLIC "-//W3C//DTD SVG 1.1//EN" "http://www.w3.org/Graphics/SVG/1.1/DTD/svg11.dtd">
<svg version="1.1" xmlns="http://www.w3.org/2000/svg" xmlns:xlink="http://www.w3.org/1999/xlink" x="0px" y="0px" width="792px"
	 height="612px" viewBox="0 0 792 612" enable-background="new 0 0 792 612" xml:space="preserve">
<g id="bg">
	<rect fill="#FFFFFF" width="792" height="612"/>
</g>
<g id="floor">
	<polygon fill="#FFFFFF" points="671.199,551.187 671.199,358.452 712.547,358.452 712.547,253.549 673.198,253.549 673.198,60.814 
		79.455,60.814 79.455,394.465 158.5,394.465 158.5,551.187 169,551.187 169,482.497 352.884,482.497 352.884,551.187 	"/>
</g>
<g id="furn_shad" display="none">
	<path display="inline" fill="#FFFFFF" d="M394.974,358.452c5.037,0,10.074,0,15.112,0c1.259,0,2.519,0,3.777,0
		c0.629,0,1.226-0.244,1.886,0.009c0.431,0.166,0.086,1.605,0.086,1.855c0,2.519,0,5.037,0,7.557c0,1.327,0.533,2.323,1.187,3.392
		c0.787,1.284,0.279,2.476,0.279,3.729c0,2.518,0,5.037,0,7.556c0,5.063,1.427,9.808-2.725,14.427
		c-3.462,3.853-9.139,4.966-13.882,3.139c-5.967-2.304-7.32-6.004-7.32-11.947c0-5.038,0-10.075,0-15.114
		c0-1.384,1.051-2.174,1.381-3.354c0.359-1.284,0.083-2.509,0.083-3.768c0-1.258,0-2.516,0-3.776c0-0.631,0-1.258,0-1.889
		c0-0.313,0-0.631,0-0.945C394.839,359.022,394.394,358.452,394.974,358.452z"/>
	<path display="inline" fill="#FFFFFF" d="M363.083,433.638c4.899,0,9.797-0.002,14.696-0.006c3.386,0,11.165-1.587,13.61,2.908
		c1.066,1.961,0.682,12.694,0.683,14.577c0,2.914,1.078,11.476-2.557,13.81c-2.494,1.603-12.113,0.888-14.516,0.888
		c-2.3,0-4.599,0.003-6.897,0.003c-1.182,0-2.363,0-3.544,0c-0.55,0.003-1.458,0.534-1.458-0.438c0-0.787-0.002-1.572-0.002-2.356
		C363.091,453.229,363.087,443.434,363.083,433.638z"/>
	<polygon display="inline" fill="#FFFFFF" points="252.85,71.02 252.85,109.799 128.44,109.799 128.44,246.743 89.661,246.743 
		89.661,71.02 	"/>
	<rect x="511.4" y="71.02" display="inline" fill="#FFFFFF" width="98.65" height="130.711"/>
	<rect x="530.28" y="400.391" display="inline" fill="#FFFFFF" width="130.714" height="98.653"/>
	<path display="inline" fill="#FFFFFF" d="M230.476,372.697c2.081-2.413,3.579-0.316,5.17,1.276
		c0.491,0.491,0.983,0.983,1.475,1.475c0.983,0.983,1.967,1.967,2.951,2.951c2.939,2.94,5.88,5.88,8.822,8.82
		c2.042,2.041,4.58,3.945,1.561,6.61c-1.042,0.92-2.084,1.839-3.128,2.76c-3.118,2.751-6.237,5.503-9.354,8.254
		c-4.516,3.984-6.812-0.516-9.686-3.388c-2.941-2.941-5.883-5.883-8.822-8.824c-1.616-1.614-2.401-2.978-0.785-5.023
		c0.451-0.569,0.903-1.14,1.352-1.707c0.902-1.14,1.803-2.281,2.703-3.418C225.315,379.223,227.894,375.958,230.476,372.697z"/>
	<path display="inline" fill="#FFFFFF" d="M290.979,372.688c2.579,3.265,5.16,6.526,7.738,9.787c0.901,1.14,1.804,2.277,2.705,3.418
		c0.449,0.57,0.9,1.137,1.351,1.707c1.616,2.045,0.831,3.408-0.785,5.023c-2.939,2.941-5.881,5.883-8.822,8.824
		c-2.874,2.874-5.169,7.372-9.687,3.391c-3.118-2.753-6.237-5.506-9.354-8.258c-1.042-0.919-2.085-1.84-3.127-2.761
		c-3.019-2.659-0.481-4.563,1.562-6.605c2.94-2.941,5.881-5.883,8.823-8.824c0.983-0.983,1.965-1.967,2.948-2.95
		c0.491-0.491,0.983-0.983,1.475-1.475C287.397,372.374,288.896,370.275,290.979,372.688z"/>
	<path display="inline" fill="#FFFFFF" d="M270.377,332.794c3.261-2.578,6.524-5.16,9.787-7.739
		c1.139-0.899,2.278-1.801,3.416-2.703c0.57-0.449,1.139-0.899,1.709-1.352c2.045-1.617,3.409-0.833,5.022,0.784
		c2.941,2.941,5.882,5.882,8.822,8.82c2.875,2.876,7.375,5.171,3.391,9.688c-2.751,3.118-5.504,6.235-8.255,9.354
		c-0.92,1.044-1.84,2.085-2.76,3.128c-2.662,3.017-4.565,0.482-6.609-1.562c-2.94-2.942-5.881-5.881-8.823-8.821
		c-0.983-0.983-1.967-1.968-2.949-2.951c-0.491-0.491-0.983-0.982-1.475-1.475C270.062,336.377,267.963,334.877,270.377,332.794z"/>
	
		<rect x="237.156" y="339.459" transform="matrix(0.7071 0.7071 -0.7071 0.7071 333.0789 -78.032)" display="inline" fill="#FFFFFF" width="47.147" height="47.149"/>
	<rect x="339.725" y="133.172" display="inline" fill="#FFFFFF" width="27.371" height="68.426"/>
	<rect x="391.977" y="102.073" display="inline" fill="#FFFFFF" width="52.874" height="130.627"/>
	<path display="inline" fill="#FFFFFF" d="M547.753,348.24c-0.002-4.896-0.004-9.796-0.005-14.693
		c-0.002-3.388-1.589-11.166,2.904-13.609c1.962-1.067,12.697-0.684,14.577-0.684c2.914,0,11.478-1.077,13.811,2.555
		c1.604,2.494,0.888,12.114,0.888,14.516c0.002,2.302,0.004,4.602,0.004,6.9c0,1.182,0.001,2.361,0.001,3.544
		c0,0.549,0.534,1.458-0.44,1.458c-0.784,0.002-1.569,0.002-2.354,0.002C567.343,348.232,557.548,348.238,547.753,348.24z"/>
	<path display="inline" fill="#FFFFFF" d="M624.289,348.238c-5.039,0-10.075,0-15.114,0c-1.259,0-2.519,0-3.777,0
		c-0.629,0-1.225,0.243-1.886-0.01c-0.431-0.166-0.086-1.604-0.086-1.855c0-2.518,0-5.037,0-7.557c0-1.327-0.532-2.322-1.186-3.391
		c-0.787-1.285-0.281-2.477-0.281-3.728c0-2.521,0-5.038,0-7.558c0-5.063-1.426-9.809,2.727-14.427
		c3.46-3.852,9.137-4.965,13.881-3.137c5.967,2.302,7.319,6.004,7.319,11.945c0,5.038,0,10.077,0,15.114
		c0,1.385-1.051,2.175-1.381,3.355c-0.359,1.285-0.083,2.509-0.083,3.768c0,1.258,0,2.516,0,3.777c0,0.63,0,1.257,0,1.887
		c0,0.315,0,0.632,0,0.945C624.422,347.668,624.865,348.238,624.289,348.238z"/>
	<path display="inline" fill="#FFFFFF" d="M251.075,332.787c2.414,2.081,0.314,3.58-1.277,5.17
		c-0.491,0.491-0.983,0.983-1.474,1.475c-0.983,0.983-1.967,1.967-2.951,2.95c-2.941,2.941-5.882,5.883-8.822,8.824
		c-2.042,2.042-3.947,4.579-6.609,1.56c-0.92-1.041-1.84-2.085-2.76-3.129c-2.752-3.115-5.503-6.234-8.255-9.354
		c-3.984-4.516,0.516-6.813,3.391-9.684c2.938-2.942,5.88-5.883,8.821-8.824c1.616-1.613,2.979-2.401,5.023-0.781
		c0.569,0.449,1.14,0.899,1.709,1.349c1.139,0.901,2.277,1.804,3.416,2.702C244.551,327.628,247.813,330.207,251.075,332.787z"/>
	<path display="inline" fill="#FFFFFF" d="M306.22,333.769c0.512,0.942-0.452,1.724-1.269,1.029
		c-0.001,0.004-0.001,0.004-0.003,0.004c-0.002-0.004-0.006-0.009-0.009-0.012c-0.008-0.01-0.04-0.013-0.021-0.028
		c-2.385-2.936-4.913-5.717-7.605-8.371c-1.342-1.324-2.721-2.609-4.135-3.858c-1.214-1.071-3.63-0.835-3.475-3.372
		c0.017-0.271,0.111-0.45,0.33-0.616c0.151-0.111,0.302-0.163,0.493-0.165c2.355-0.025,2.723,2.009,3.994,3.14
		c1.411,1.253,2.786,2.543,4.126,3.871c1.341,1.327,2.643,2.688,3.909,4.088c0.748,0.825,1.482,1.662,2.205,2.512
		c0.361,0.426,0.718,0.854,1.071,1.282c0.134,0.164,0.726,0.224,0.399,0.489c-0.001,0.003-0.003,0.003-0.004,0.003
		C306.225,333.767,306.221,333.767,306.22,333.769z"/>
	<path display="inline" fill="#FFFFFF" d="M289.01,407.229c2.934-2.383,5.716-4.911,8.37-7.605c1.326-1.342,2.611-2.721,3.859-4.133
		c1.071-1.212,0.836-3.629,3.375-3.475c0.271,0.015,0.447,0.11,0.612,0.329c0.114,0.15,0.166,0.301,0.167,0.49
		c0.024,2.356-2.009,2.726-3.139,3.998c-1.253,1.409-2.543,2.784-3.872,4.123c-1.328,1.344-2.689,2.644-4.086,3.911
		c-0.828,0.747-1.666,1.483-2.515,2.205c-0.424,0.358-0.852,0.718-1.282,1.07c-0.163,0.133-0.225,0.725-0.489,0.398
		c-0.001,0-0.001-0.003-0.003-0.003c-0.002-0.003-0.003-0.003-0.006-0.006c-0.941,0.51-1.722-0.452-1.03-1.271c0,0,0,0-0.002,0
		c0.004-0.003,0.008-0.006,0.012-0.009C288.99,407.241,288.995,407.211,289.01,407.229z"/>
	<path display="inline" fill="#FFFFFF" d="M232.479,407.271c0.692,0.818-0.089,1.78-1.03,1.271c-0.003,0.003-0.006,0.006-0.009,0.01
		c-2.934-2.384-5.718-4.906-8.378-7.591c-1.327-1.339-2.617-2.715-3.868-4.125c-1.13-1.27-3.17-1.634-3.136-3.992
		c0.002-0.193,0.054-0.342,0.172-0.495c0.165-0.215,0.341-0.309,0.61-0.326c2.536-0.146,2.302,2.266,3.375,3.479
		c1.249,1.414,2.533,2.793,3.858,4.136c2.654,2.69,5.434,5.219,8.368,7.602c0.001-0.003,0.001-0.003,0.003-0.006
		c0.009,0.009,0.017,0.019,0.024,0.027C232.474,407.263,232.486,407.266,232.479,407.271z"/>
	<path display="inline" fill="#FFFFFF" d="M215.221,333.752c2.383-2.934,4.904-5.718,7.591-8.378
		c1.339-1.327,2.714-2.616,4.124-3.867c1.27-1.132,1.634-3.171,3.995-3.138c0.189,0.003,0.34,0.054,0.493,0.172
		c0.216,0.165,0.309,0.342,0.325,0.612c0.146,2.533-2.265,2.303-3.478,3.373c-1.414,1.249-2.791,2.534-4.135,3.858
		c-2.69,2.654-5.217,5.436-7.601,8.367c0,0.004,0.001,0.004,0.003,0.004c-0.007,0.009-0.017,0.018-0.026,0.024
		c-0.003,0.007-0.004,0.018-0.011,0.013c-0.817,0.69-1.779-0.091-1.269-1.032C215.229,333.758,215.223,333.754,215.221,333.752z"/>
</g>
<g id="furn" display="none">
	
		<rect x="391.977" y="102.073" display="inline" fill="#FFFFFF" stroke="#666666" stroke-width="0.25" stroke-linecap="round" stroke-linejoin="round" width="52.874" height="130.627"/>
	<path display="inline" fill="#FFFFFF" stroke="#666666" stroke-width="0.25" stroke-linecap="round" stroke-linejoin="round" d="
		M394.974,358.452c-0.992,0-0.134,0.987-0.134,1.49c0,0.522,0,1.043,0,1.563c0,1.043,0,2.088,0,3.131
		c0,0.926,0.237,5.182-0.689,6.075c-1.047,1.011-0.776,4.948-0.776,6.013c0,2.085,0,4.172,0,6.26c0,4.168-0.995,8.136,1.448,12.257
		c2.568,4.332,5.611,5.731,10.516,5.731c4.908,0,7.95-1.399,10.518-5.734c2.438-4.121,1.445-8.086,1.445-12.254
		c0-2.088,0-4.175,0-6.26c0-1.07,0.272-4.998-0.778-6.016c-0.921-0.891-0.688-5.146-0.688-6.072c0-1.043,0-2.088,0-3.129
		c0-0.522,0-1.043,0-1.565c0-0.503,0.858-1.49-0.134-1.49C408.792,358.452,401.883,358.452,394.974,358.452z"/>
	
		<rect x="363.089" y="486.554" display="inline" fill="#FFFFFF" stroke="#666666" stroke-width="0.25" stroke-linecap="round" stroke-linejoin="round" width="84.496" height="54.428"/>
	
		<rect x="647.914" y="263.751" display="inline" fill="#FFFFFF" stroke="#666666" stroke-width="0.25" stroke-linecap="round" stroke-linejoin="round" width="54.427" height="84.496"/>
	
		<rect x="511.4" y="71.02" display="inline" fill="#FFFFFF" stroke="#666666" stroke-width="0.25" stroke-linecap="round" stroke-linejoin="round" width="98.65" height="130.711"/>
	
		<polyline display="inline" fill="#FFFFFF" stroke="#666666" stroke-width="0.25" stroke-linecap="round" stroke-linejoin="round" points="
		562.344,95.833 562.344,74.253 606.814,74.253 606.814,100.149 580.76,100.149 	"/>
	
		<rect x="530.28" y="400.391" display="inline" fill="#FFFFFF" stroke="#666666" stroke-width="0.25" stroke-linecap="round" stroke-linejoin="round" width="130.714" height="98.653"/>
	
		<polyline display="inline" fill="#FFFFFF" stroke="#666666" stroke-width="0.25" stroke-linecap="round" stroke-linejoin="round" points="
		636.18,451.337 657.756,451.337 657.756,495.807 631.864,495.807 631.864,469.751 	"/>
	
		<polygon display="inline" fill="#FFFFFF" stroke="#666666" stroke-width="0.25" stroke-linecap="round" stroke-linejoin="round" points="
		252.85,71.02 89.661,71.02 89.661,246.743 128.44,246.743 128.44,109.799 252.85,109.799 	"/>
	<path display="inline" fill="#FFFFFF" stroke="#666666" stroke-width="0.25" stroke-linecap="round" stroke-linejoin="round" d="
		M363.083,433.638c0.005,10.728,0.01,21.455,0.015,32.183c5.36-0.003,10.722-0.006,16.083-0.006
		c4.745-0.004,12.897,1.976,12.895-5.579c-0.003-7.013-0.006-14.024-0.009-21.034c-0.001-3.08-2.499-5.572-5.576-5.572
		C378.688,433.632,370.885,433.636,363.083,433.638z"/>
	<path display="inline" fill="#FFFFFF" stroke="#666666" stroke-width="0.25" stroke-linecap="round" stroke-linejoin="round" d="
		M547.753,348.24c10.727-0.002,21.454-0.008,32.182-0.014c-0.003-5.362-0.005-10.722-0.008-16.083
		c-0.002-4.745,1.979-12.896-5.576-12.894c-7.013,0.004-14.024,0.006-21.037,0.01c-3.078,0-5.57,2.498-5.569,5.574
		C547.748,332.636,547.751,340.439,547.753,348.24z"/>
	<path display="inline" fill="#FFFFFF" stroke="#666666" stroke-width="0.25" stroke-linecap="round" stroke-linejoin="round" d="
		M624.289,348.238c0.991,0,0.133-0.986,0.133-1.491c0-0.521,0-1.04,0-1.562c0-1.044,0-2.088,0-3.133
		c0-0.926-0.236-5.182,0.689-6.075c1.047-1.007,0.774-4.946,0.774-6.012c0-2.085,0-4.172,0-6.26c0-4.169,0.995-8.136-1.447-12.258
		c-2.567-4.331-5.61-5.728-10.516-5.728c-4.907,0-7.95,1.397-10.517,5.732c-2.439,4.121-1.447,8.085-1.447,12.254
		c0,2.088,0,4.175,0,6.26c0,1.071-0.271,4.998,0.779,6.016c0.923,0.89,0.688,5.146,0.688,6.071c0,1.045,0,2.089,0,3.133
		c0,0.521,0,1.04,0,1.562c0,0.505-0.858,1.491,0.134,1.491C610.469,348.238,617.378,348.238,624.289,348.238z"/>
	
		<polyline display="inline" fill="#FFFFFF" stroke="#666666" stroke-width="0.25" stroke-linecap="round" stroke-linejoin="round" points="
		636.18,403.628 657.756,403.628 657.756,448.101 636.18,448.101 	"/>
	
		<polyline display="inline" fill="#FFFFFF" stroke="#666666" stroke-width="0.25" stroke-linecap="round" stroke-linejoin="round" points="
		514.636,95.833 514.636,74.253 559.106,74.253 559.106,95.833 	"/>
	
		<polygon display="inline" fill="#FFFFFF" stroke="#666666" stroke-width="0.25" stroke-linecap="round" stroke-linejoin="round" points="
		573.461,95.833 610.051,117.468 591.091,127.893 	"/>
	
		<line display="inline" fill="#FFFFFF" stroke="#666666" stroke-width="0.25" stroke-linecap="round" stroke-linejoin="round" x1="573.461" y1="95.833" x2="511.4" y2="95.833"/>
	
		<line display="inline" fill="#FFFFFF" stroke="#666666" stroke-width="0.25" stroke-linecap="round" stroke-linejoin="round" x1="447.585" y1="486.554" x2="363.089" y2="540.981"/>
	<path display="inline" fill="#FFFFFF" stroke="#666666" stroke-width="0.25" stroke-linecap="round" stroke-linejoin="round" d="
		M377.883,447.948c-1.252,0-1.77,0.52-1.769,1.771c0,1.249,0.518,1.769,1.77,1.769c1.25,0,1.768-0.52,1.768-1.771
		C379.652,448.468,379.133,447.948,377.883,447.948z"/>
	<path display="inline" fill="#FFFFFF" stroke="#666666" stroke-width="0.25" stroke-linecap="round" stroke-linejoin="round" d="
		M377.881,447.168c-1.804,0-2.55,0.748-2.549,2.552c0,1.805,0.749,2.553,2.552,2.549c1.804,0,2.55-0.747,2.55-2.552
		C380.433,447.914,379.686,447.168,377.881,447.168z"/>
	<path display="inline" fill="#FFFFFF" stroke="#666666" stroke-width="0.25" stroke-linecap="round" stroke-linejoin="round" d="
		M372.671,436.827c0.002,8.6,0.008,17.198,0.012,25.799c0.227,0.227,0.453,0.452,0.681,0.681c3.795-0.002,7.591-0.005,11.387-0.005
		c2.817-0.004,5.102-2.287,5.102-5.108c-0.003-5.649-0.006-11.3-0.009-16.954c-0.001-4.978-3.377-5.101-7.325-5.098
		c-1.708,0-3.413,0-5.12,0.003c-0.853,0-1.706,0-2.558,0C374.014,436.145,372.669,435.378,372.671,436.827z"/>
	<path display="inline" fill="#FFFFFF" stroke="#666666" stroke-width="0.25" stroke-linecap="round" stroke-linejoin="round" d="
		M415.573,374.849c0,5.057,0,10.112,0,15.17c0,1.213-0.271,2.43-0.779,3.533c-0.511,1.11-1.262,2.112-2.166,2.938
		c-0.976,0.896-2.134,1.587-3.375,2.051c-1.249,0.468-2.582,0.703-3.915,0.703c-1.334,0-2.667-0.235-3.915-0.703
		c-1.242-0.464-2.4-1.155-3.377-2.051c-0.903-0.826-1.654-1.828-2.164-2.938c-0.507-1.104-0.78-2.32-0.78-3.533
		c0-5.058,0-10.113,0-15.17c0-1.222,0.506-1.729,1.729-1.729c5.672,0,11.343,0,17.014,0
		C415.066,373.12,415.573,373.627,415.573,374.849z"/>
	
		<polygon display="inline" fill="#FFFFFF" stroke="#666666" stroke-width="0.25" stroke-linecap="round" stroke-linejoin="round" points="
		636.18,462.453 614.542,499.044 604.117,480.083 	"/>
	
		<line display="inline" fill="#FFFFFF" stroke="#666666" stroke-width="0.25" stroke-linecap="round" stroke-linejoin="round" x1="636.18" y1="462.453" x2="636.18" y2="400.391"/>
	<path display="inline" fill="#FFFFFF" stroke="#666666" stroke-width="0.25" stroke-linecap="round" stroke-linejoin="round" d="
		M290.979,372.688c4.06,5.136,8.12,10.269,12.182,15.404c1.112,1.288,1.075,2.287-0.129,3.49
		c-4.834,4.833-9.668,9.669-14.502,14.501c-1.204,1.203-2.2,1.24-3.491,0.127c-4.884-4.308-9.768-8.618-14.653-12.93
		c-1.458-1.258-1.5-2.395-0.138-3.756c5.659-5.66,11.316-11.315,16.974-16.976C288.583,371.189,289.72,371.231,290.979,372.688z"/>
	<path display="inline" fill="#FFFFFF" stroke="#666666" stroke-width="0.25" stroke-linecap="round" stroke-linejoin="round" d="
		M270.377,332.794c5.133-4.06,10.268-8.12,15.402-12.18c1.289-1.114,2.285-1.077,3.49,0.126c4.834,4.837,9.667,9.669,14.501,14.502
		c1.206,1.206,1.242,2.202,0.129,3.489c-4.31,4.888-8.62,9.772-12.93,14.655c-1.258,1.457-2.395,1.499-3.757,0.14
		c-5.659-5.66-11.316-11.316-16.973-16.976C268.876,335.19,268.919,334.055,270.377,332.794z"/>
	
		<rect x="237.155" y="339.458" transform="matrix(-0.7071 0.7071 -0.7071 -0.7071 701.7958 435.3761)" display="inline" fill="#FFFFFF" stroke="#666666" stroke-width="0.25" stroke-linecap="round" stroke-linejoin="round" width="47.149" height="47.15"/>
	
		<rect x="339.725" y="133.172" display="inline" fill="#FFFFFF" stroke="#666666" stroke-width="0.25" stroke-linecap="round" stroke-linejoin="round" width="27.371" height="68.426"/>
	
		<line display="inline" fill="#FFFFFF" stroke="#666666" stroke-width="0.25" stroke-linecap="round" stroke-linejoin="round" x1="401.308" y1="148.206" x2="433.965" y2="148.206"/>
	
		<line display="inline" fill="#FFFFFF" stroke="#666666" stroke-width="0.25" stroke-linecap="round" stroke-linejoin="round" x1="401.308" y1="186.566" x2="433.965" y2="186.566"/>
	
		<line display="inline" fill="#FFFFFF" stroke="#666666" stroke-width="0.25" stroke-linecap="round" stroke-linejoin="round" x1="401.308" y1="109.848" x2="437.075" y2="109.848"/>
	
		<line display="inline" fill="#FFFFFF" stroke="#666666" stroke-width="0.25" stroke-linecap="round" stroke-linejoin="round" x1="401.308" y1="224.924" x2="437.075" y2="224.924"/>
	
		<line display="inline" fill="#FFFFFF" stroke="#666666" stroke-width="0.25" stroke-linecap="round" stroke-linejoin="round" x1="437.075" y1="112.958" x2="437.075" y2="145.095"/>
	
		<line display="inline" fill="#FFFFFF" stroke="#666666" stroke-width="0.25" stroke-linecap="round" stroke-linejoin="round" x1="437.075" y1="151.315" x2="437.075" y2="183.456"/>
	
		<line display="inline" fill="#FFFFFF" stroke="#666666" stroke-width="0.25" stroke-linecap="round" stroke-linejoin="round" x1="437.075" y1="189.676" x2="437.075" y2="221.813"/>
	<path display="inline" fill="#FFFFFF" stroke="#666666" stroke-width="0.25" stroke-linecap="round" stroke-linejoin="round" d="
		M562.064,333.441c0,1.252,0.518,1.771,1.771,1.771c1.25-0.003,1.768-0.519,1.768-1.771s-0.521-1.769-1.77-1.769
		C562.581,331.673,562.063,332.191,562.064,333.441z"/>
	<path display="inline" fill="#FFFFFF" stroke="#666666" stroke-width="0.25" stroke-linecap="round" stroke-linejoin="round" d="
		M561.281,333.443c0,1.805,0.75,2.55,2.554,2.55c1.803,0,2.55-0.748,2.55-2.552c-0.001-1.805-0.749-2.553-2.554-2.551
		C562.027,330.891,561.28,331.64,561.281,333.443z"/>
	<path display="inline" fill="#FFFFFF" stroke="#666666" stroke-width="0.25" stroke-linecap="round" stroke-linejoin="round" d="
		M550.941,338.654c8.6-0.004,17.199-0.01,25.798-0.013c0.228-0.227,0.454-0.452,0.681-0.679c-0.002-3.798-0.004-7.594-0.005-11.389
		c-0.001-2.817-2.286-5.101-5.104-5.101c-5.653,0.003-11.304,0.006-16.954,0.009c-4.979,0.003-5.103,3.378-5.101,7.324
		c0.002,1.708,0.002,3.412,0.004,5.12c0,0.854,0,1.704,0.001,2.558C550.261,337.312,549.493,338.654,550.941,338.654z"/>
	
		<line display="inline" fill="#FFFFFF" stroke="#666666" stroke-width="0.25" stroke-linecap="round" stroke-linejoin="round" x1="647.914" y1="263.751" x2="702.341" y2="348.247"/>
	<path display="inline" fill="#FFFFFF" stroke="#666666" stroke-width="0.25" stroke-linecap="round" stroke-linejoin="round" d="
		M603.688,331.842c0-5.057,0-10.111,0-15.171c0-1.213,0.271-2.429,0.777-3.532c0.513-1.11,1.262-2.111,2.165-2.938
		c0.979-0.896,2.137-1.587,3.377-2.052c1.249-0.468,2.582-0.703,3.915-0.703c1.334,0,2.667,0.235,3.915,0.703
		c1.24,0.465,2.4,1.155,3.377,2.052c0.903,0.827,1.653,1.828,2.165,2.938c0.506,1.104,0.778,2.319,0.778,3.532
		c0,5.06,0,10.114,0,15.171c0,1.223-0.506,1.729-1.727,1.729c-5.672,0-11.344,0-17.016,0
		C604.194,333.57,603.688,333.064,603.688,331.842z"/>
	<path display="inline" fill="#FFFFFF" stroke="#666666" stroke-width="0.25" stroke-linecap="round" stroke-linejoin="round" d="
		M251.075,332.787c-5.133-4.063-10.268-8.122-15.402-12.183c-1.29-1.113-2.285-1.077-3.49,0.131
		c-4.834,4.831-9.667,9.665-14.501,14.5c-1.205,1.204-1.242,2.2-0.128,3.491c4.309,4.884,8.62,9.768,12.929,14.651
		c1.258,1.461,2.395,1.499,3.757,0.139c5.658-5.66,11.316-11.315,16.973-16.974C252.575,335.182,252.533,334.044,251.075,332.787z"
		/>
	<path display="inline" fill="#FFFFFF" stroke="#666666" stroke-width="0.25" stroke-linecap="round" stroke-linejoin="round" d="
		M216.538,334.756c-0.787,0.758-1.858-0.112-1.281-1.037C215.684,334.062,216.111,334.41,216.538,334.756z"/>
	<path display="inline" fill="#FFFFFF" stroke="#666666" stroke-width="0.25" stroke-linecap="round" stroke-linejoin="round" d="
		M290.046,408.506c-0.926,0.579-1.795-0.492-1.04-1.279C289.354,407.652,289.701,408.081,290.046,408.506z"/>
	<path display="inline" fill="#FFFFFF" stroke="#666666" stroke-width="0.25" stroke-linecap="round" stroke-linejoin="round" d="
		M232.445,407.232c0.756,0.79-0.113,1.861-1.039,1.282C231.751,408.09,232.098,407.662,232.445,407.232z"/>
	<path display="inline" fill="#FFFFFF" stroke="#666666" stroke-width="0.25" stroke-linecap="round" stroke-linejoin="round" d="
		M304.948,334.802c-4.508-5.555-9.459-10.508-15.014-15.018c-0.755-0.787,0.114-1.858,1.04-1.278
		c5.643,4.582,10.674,9.613,15.257,15.255C305.803,334.107,305.377,334.454,304.948,334.802z"/>
	<path display="inline" fill="#FFFFFF" stroke="#666666" stroke-width="0.25" stroke-linecap="round" stroke-linejoin="round" d="
		M306.194,333.725c0.578,0.926-0.493,1.797-1.28,1.04C305.34,334.418,305.768,334.07,306.194,333.725z"/>
	<path display="inline" fill="#FFFFFF" stroke="#666666" stroke-width="0.25" stroke-linecap="round" stroke-linejoin="round" d="
		M288.971,407.263c5.554-4.509,10.507-9.464,15.015-15.017c0.789-0.754,1.86,0.113,1.282,1.04
		c-4.582,5.641-9.613,10.674-15.257,15.256C289.665,408.115,289.317,407.688,288.971,407.263z"/>
	<path display="inline" fill="#FFFFFF" stroke="#666666" stroke-width="0.25" stroke-linecap="round" stroke-linejoin="round" d="
		M231.44,408.552c-5.644-4.583-10.674-9.615-15.256-15.257c-0.578-0.926,0.493-1.797,1.282-1.04
		c4.507,5.554,9.461,10.506,15.015,15.014C232.134,407.697,231.787,408.122,231.44,408.552z"/>
	<path display="inline" fill="#FFFFFF" stroke="#666666" stroke-width="0.25" stroke-linecap="round" stroke-linejoin="round" d="
		M215.221,333.752c4.583-5.642,9.614-10.674,15.257-15.256c0.925-0.58,1.795,0.491,1.041,1.281
		c-5.554,4.508-10.508,9.461-15.015,15.016C216.076,334.445,215.647,334.099,215.221,333.752z"/>
	<path display="inline" fill="#FFFFFF" stroke="#666666" stroke-width="0.25" stroke-linecap="round" stroke-linejoin="round" d="
		M230.476,372.697c-4.061,5.134-8.123,10.27-12.184,15.402c-1.113,1.289-1.075,2.285,0.129,3.492
		c4.834,4.832,9.667,9.664,14.501,14.501c1.205,1.203,2.201,1.238,3.492,0.126c4.884-4.308,9.769-8.618,14.654-12.93
		c1.457-1.258,1.499-2.395,0.137-3.755c-5.657-5.659-11.316-11.316-16.973-16.976C232.871,371.198,231.733,371.24,230.476,372.697z"
		/>
</g>
<g id="doors">
	<path fill="none" stroke="#666666" stroke-width="0.5" stroke-linecap="round" stroke-linejoin="round" d="M539.35,258.65
		c0,10.495,0,20.99,0,31.482c0,5.249,0,10.496,0,15.741c0,0.344,0,0.687,0,1.035c0,0.289-0.212,0.729,0.275,0.727
		c0.625-0.003,1.25-0.021,1.877-0.049c1.279-0.054,2.552-0.159,3.823-0.315c2.656-0.33,5.244-0.864,7.813-1.618
		c20.865-6.118,35.197-25.259,35.197-47.003"/>
	<path fill="none" stroke="#666666" stroke-width="0.5" stroke-linecap="round" stroke-linejoin="round" d="M452.688,474.21
		c-16.328,0-32.658,0-48.986,0c0-27.054,21.932-48.985,48.986-48.985"/>
	<path fill="none" stroke="#666666" stroke-width="0.5" stroke-linecap="round" stroke-linejoin="round" d="M271.56,65.915
		c0,13.322,0,26.644,0,39.966c0,6.661,0,13.325,0,19.985c0,0.474-0.572,2.239,0.347,2.232c0.795-0.003,1.589-0.024,2.382-0.06
		c1.624-0.07,3.241-0.206,4.855-0.402c3.373-0.416,6.658-1.094,9.917-2.05c26.486-7.769,44.682-32.068,44.682-59.671"/>
	<path fill="none" stroke="#666666" stroke-width="0.5" stroke-linecap="round" stroke-linejoin="round" d="M463.561,258.65
		c0-18.459,0-36.921,0-55.381c30.584,0,55.38,24.794,55.38,55.381"/>
	<path fill="none" stroke="#666666" stroke-width="0.5" stroke-linecap="round" stroke-linejoin="round" d="M463.561,353.352
		c0,18.459,0,36.918,0,55.38c30.584,0,55.38-24.795,55.38-55.38"/>
</g>
<g id="windows">
	
		<line fill="none" stroke="#666666" stroke-width="0.5" stroke-linecap="round" stroke-linejoin="round" x1="662.994" y1="162.284" x2="662.994" y2="253.549"/>
	
		<line fill="none" stroke="#666666" stroke-width="0.5" stroke-linecap="round" stroke-linejoin="round" x1="673.198" y1="162.284" x2="673.198" y2="253.549"/>
	
		<line fill="none" stroke="#666666" stroke-width="0.5" stroke-linecap="round" stroke-linejoin="round" x1="702.341" y1="348.247" x2="702.341" y2="292.118"/>
	
		<line fill="none" stroke="#666666" stroke-width="0.5" stroke-linecap="round" stroke-linejoin="round" x1="712.547" y1="348.247" x2="712.547" y2="292.118"/>
	
		<line fill="none" stroke="#666666" stroke-width="0.5" stroke-linecap="round" stroke-linejoin="round" x1="419.219" y1="551.187" x2="363.089" y2="551.187"/>
	
		<line fill="none" stroke="#666666" stroke-width="0.5" stroke-linecap="round" stroke-linejoin="round" x1="419.219" y1="540.981" x2="363.089" y2="540.981"/>
	
		<line fill="none" stroke="#666666" stroke-width="0.5" stroke-linecap="round" stroke-linejoin="round" x1="169.021" y1="482.497" x2="352.884" y2="482.497"/>
	
		<line fill="none" stroke="#666666" stroke-width="0.5" stroke-linecap="round" stroke-linejoin="round" x1="169.021" y1="472.291" x2="352.884" y2="472.291"/>
	
		<line fill="none" stroke="#666666" stroke-width="0.5" stroke-linecap="round" stroke-linejoin="round" x1="419.219" y1="546.085" x2="363.089" y2="546.085"/>
	
		<line fill="none" stroke="#666666" stroke-width="0.5" stroke-linecap="round" stroke-linejoin="round" x1="707.443" y1="348.247" x2="707.443" y2="292.118"/>
	
		<line fill="none" stroke="#666666" stroke-width="0.5" stroke-linecap="round" stroke-linejoin="round" x1="169.021" y1="477.393" x2="352.884" y2="477.393"/>
	
		<line fill="none" stroke="#666666" stroke-width="0.5" stroke-linecap="round" stroke-linejoin="round" x1="668.096" y1="162.284" x2="668.096" y2="253.549"/>
	
		<line fill="none" stroke="#666666" stroke-width="0.5" stroke-linecap="round" stroke-linejoin="round" x1="486.154" y1="551.187" x2="608.619" y2="551.187"/>
	
		<line fill="none" stroke="#666666" stroke-width="0.5" stroke-linecap="round" stroke-linejoin="round" x1="486.154" y1="540.981" x2="608.619" y2="540.981"/>
	
		<line fill="none" stroke="#666666" stroke-width="0.5" stroke-linecap="round" stroke-linejoin="round" x1="486.154" y1="546.085" x2="608.619" y2="546.085"/>
</g>
<g id="walls">
	<polygon fill="#CCCCCC" stroke="#666666" stroke-width="0.5" stroke-linecap="round" stroke-linejoin="round" points="
		363.089,358.452 363.089,551.187 352.884,551.187 352.884,358.452 352.884,348.247 463.561,348.247 463.561,358.452 
		457.79,358.452 457.79,425.225 447.585,425.225 447.585,358.452 	"/>
	<polygon fill="#CCCCCC" stroke="#666666" stroke-width="0.5" stroke-linecap="round" stroke-linejoin="round" points="
		458.457,71.02 662.994,71.02 662.994,162.284 673.198,162.284 673.198,60.814 333.743,60.814 333.743,71.02 448.252,71.02 
		448.252,263.751 463.561,263.751 463.561,253.549 458.457,253.549 	"/>
	<path fill="#CCCCCC" stroke="#666666" stroke-width="0.5" stroke-linecap="round" stroke-linejoin="round" d="M169.021,384.261
		v166.926h-10.206V394.465H79.455V60.814H271.56V71.02h-8.504v192.732H252.85V71.02H89.661v195.2h79.361v123.142 M89.661,276.425
		v107.836h69.155V276.425H89.661z"/>
	<polygon fill="#CCCCCC" stroke="#666666" stroke-width="0.5" stroke-linecap="round" stroke-linejoin="round" points="
		588.336,263.751 702.341,263.751 702.341,292.118 712.547,292.118 712.547,253.549 588.336,253.549 	"/>
	<polygon fill="#CCCCCC" stroke="#666666" stroke-width="0.5" stroke-linecap="round" stroke-linejoin="round" points="
		447.585,540.981 419.219,540.981 419.219,551.187 486.154,551.187 486.154,540.981 457.79,540.981 457.79,474.21 447.585,474.21 	
		"/>
	<polygon fill="#CCCCCC" stroke="#666666" stroke-width="0.5" stroke-linecap="round" stroke-linejoin="round" points="
		671.199,540.981 671.199,358.452 712.547,358.452 712.547,348.247 660.994,348.247 534.248,348.247 534.248,263.751 
		539.35,263.751 539.35,253.549 518.94,253.549 518.94,263.751 524.043,263.751 524.043,348.247 518.94,348.247 518.94,358.452 
		660.994,358.452 660.994,540.981 608.619,540.981 608.619,551.187 671.199,551.187 	"/>
</g>
<g id="anno">
	
		<line fill="none" stroke="#666666" stroke-width="0.5" stroke-linecap="round" stroke-linejoin="round" x1="158.816" y1="276.425" x2="89.661" y2="384.261"/>
	
		<line fill="none" stroke="#666666" stroke-width="0.5" stroke-linecap="round" stroke-linejoin="round" x1="89.661" y1="276.425" x2="158.816" y2="384.261"/>
</g>
<g id="anno_text">
	<text transform="matrix(1 0 0 1 237.6509 429.3066)" fill="#666666" font-family="'Verdana'" font-size="12">DINING</text>
	<text transform="matrix(1 0 0 1 395.2153 429.3066)" fill="#666666" font-family="'Verdana'" font-size="12">WC</text>
	<text transform="matrix(1 0 0 1 532.1875 429.3066)" fill="#666666" font-family="'Verdana'" font-size="12">BEDROOM</text>
	<text transform="matrix(1 0 0 1 141.6611 162.0381)" fill="#666666" font-family="'Verdana'" font-size="12">KITCHEN</text>
	<text transform="matrix(1 0 0 1 331.251 162.0381)" fill="#666666" font-family="'Verdana'" font-size="12">LIVING</text>
	<g>
		<text transform="matrix(1 0 0 1 532.1875 162.0381)" fill="#666666" font-family="'Verdana'" font-size="12">BEDROOM</text>
	</g>
	<text transform="matrix(1 0 0 1 608.1729 301.5991)" fill="#666666" font-family="'Verdana'" font-size="12">WC</text>
</g>
</svg>
